<svg height="512" viewBox="0 0 408.1 512" width="512" xmlns="http://www.w3.org/2000/svg"><g id="Layer_2" data-name="Layer 2"><g id="Microsoft_Excel_file" data-name="Microsoft Excel file"><path d="m52.84 375.71v52h-26.84a26 26 0 0 1 -26-26.15 23.59 23.59 0 0 1 .14-2.56 26 26 0 0 1 25.86-23.29z" fill="#00a649"/><path d="m408.1 366v9.62l-334.82.08h-47.28a26 26 0 0 0 -25.86 23.3l.44-183.49a26 26 0 0 1 26-26h26.26l355.26-.07z" fill="#05db5c"/><path d="m408.1 375.63v84.13a52.24 52.24 0 0 1 -52.24 52.24h-250.77a52.24 52.24 0 0 1 -52.25-52.24v-84.05h20.44z" fill="#e7e7e9"/><path d="m314.08 2.37a31.19 31.19 0 0 1 8.92 5.55l74.6 66.32a31.35 31.35 0 0 1 10 17.92h-62.2a31.34 31.34 0 0 1 -31.34-31.34v-58.45z" fill="#a3a2a3"/><path d="m302.14 0a31.13 31.13 0 0 1 11.94 2.37v58.45a31.34 31.34 0 0 0 31.34 31.34h62.2a30.49 30.49 0 0 1 .49 5.5v91.79l-355.26.07v-126.83a62.69 62.69 0 0 1 62.68-62.69z" fill="#e7e7e9"/><g fill="#fff"><path d="m202.31 336c-8.66 0-9.21-.1-10.05-.27a10.4 10.4 0 0 1 -8.44-10.21v-83.66a10.41 10.41 0 1 1 20.81 0v73.33c4.9 0 11 0 16.75-.07h.07a10.41 10.41 0 0 1 .07 20.81c-8.93.07-15.02.07-19.21.07z"/><path d="m292.51 336c-14.13 0-27.92-5.92-36.91-15.84a10.41 10.41 0 0 1 15.43-14c5.1 5.63 13.13 9 21.48 9 8.12 0 13.84-4.86 14.68-9.57 1.12-6.27-7.33-10.11-11-11.47-13-4.79-24.52-9.92-25-10.13a11.29 11.29 0 0 1 -1.45-.79 26.57 26.57 0 0 1 -11.84-26.29c1.6-11.16 9.77-20.25 21.3-23.72 22.85-6.89 41.66 8.61 42.45 9.28a10.41 10.41 0 0 1 -13.34 16c-.32-.26-11.28-8.9-23.1-5.34-5.41 1.63-6.49 5.27-6.71 6.76a5.87 5.87 0 0 0 2.08 5.51c2.94 1.29 12.52 5.42 22.81 9.22 21.1 7.77 26.39 23 24.31 34.65-2.78 15.5-17.58 26.73-35.19 26.73z"/><path d="m153.41 336a10.4 10.4 0 0 1 -8.52-4.42l-58.89-83.74a10.4 10.4 0 0 1 17-12l58.9 83.74a10.41 10.41 0 0 1 -8.5 16.4z"/><path d="m90.26 336a10.41 10.41 0 0 1 -8.5-16.41l59-83.74a10.41 10.41 0 0 1 17 12l-59 83.74a10.37 10.37 0 0 1 -8.5 4.41z"/></g></g></g></svg>